{
  "accessors": [
    {
      "bufferView": 2,
      "componentType": 5126,
      "count": 46992,
      "max": [
        1.326904296875,
        1.3643379211425781,
        4.385791301727295
      ],
      "min": [
        -1.3623929023742676,
        -1.3902604579925537,
        -4.0345284446630103e-07
      ],
      "type": "VEC3"
    },
    {
      "bufferView": 2,
      "byteOffset": 563904,
      "componentType": 5126,
      "count": 46992,
      "max": [
        0.9999891519546509,
        0.9999659657478333,
        0.9999708533287048
      ],
      "min": [
        -0.999997079372406,
        -0.9999998211860657,
        -0.9999595880508423
      ],
      "type": "VEC3"
    },
    {
      "bufferView": 1,
      "componentType": 5126,
      "count": 46992,
      "max": [
        3.68300724029541,
        5.130704402923584
      ],
      "min": [
        -2.6830074787139893,
        -4.130704402923584
      ],
      "type": "VEC2"
    },
    {
      "bufferView": 0,
      "componentType": 5125,
      "count": 202905,
      "type": "SCALAR"
    },
    {
      "bufferView": 2,
      "byteOffset": 1127808,
      "componentType": 5126,
      "count": 65532,
      "max": [
        1.421469807624817,
        1.454079270362854,
        4.521164894104004
      ],
      "min": [
        -1.444230318069458,
        -1.4575124979019165,
        1.6589620113372803
      ],
      "type": "VEC3"
    },
    {
      "bufferView": 2,
      "byteOffset": 1914192,
      "componentType": 5126,
      "count": 65532,
      "max": [
        0.9974650740623474,
        0.9998299479484558,
        0.9991319179534912
      ],
      "min": [
        -0.9971782565116882,
        -0.9990131258964539,
        -0.9518105387687683
      ],
      "type": "VEC3"
    },
    {
      "bufferView": 3,
      "componentType": 5126,
      "count": 65532,
      "max": [
        0.999978244304657,
        0.9999761581420898,
        0.99904465675354,
        1.0
      ],
      "min": [
        -0.9998762011528015,
        -0.9998091459274292,
        -0.9995363354682922,
        -1.0
      ],
      "type": "VEC4"
    },
    {
      "bufferView": 1,
      "byteOffset": 375936,
      "componentType": 5126,
      "count": 65532,
      "max": [
        0.6014613509178162,
        0.6423348784446716
      ],
      "min": [
        0.39917516708374023,
        0.34940674901008606
      ],
      "type": "VEC2"
    },
    {
      "bufferView": 1,
      "byteOffset": 900192,
      "componentType": 5126,
      "count": 65532,
      "max": [
        0.6014613509178162,
        0.6423348784446716
      ],
      "min": [
        0.39917516708374023,
        0.34940674901008606
      ],
      "type": "VEC2"
    },
    {
      "bufferView": 1,
      "byteOffset": 1424448,
      "componentType": 5126,
      "count": 65532,
      "max": [
        0.6014613509178162,
        0.6423348784446716
      ],
      "min": [
        0.39917516708374023,
        0.34940674901008606
      ],
      "type": "VEC2"
    },
    {
      "bufferView": 0,
      "byteOffset": 811620,
      "componentType": 5125,
      "count": 65532,
      "type": "SCALAR"
    },
    {
      "bufferView": 2,
      "byteOffset": 2700576,
      "componentType": 5126,
      "count": 26742,
      "max": [
        1.4187629222869873,
        1.4514572620391846,
        4.5252299308776855
      ],
      "min": [
        -1.444230318069458,
        -1.457104206085205,
        1.6601371765136719
      ],
      "type": "VEC3"
    },
    {
      "bufferView": 2,
      "byteOffset": 3021480,
      "componentType": 5126,
      "count": 26742,
      "max": [
        0.9974663853645325,
        0.9998289346694946,
        0.9991186857223511
      ],
      "min": [
        -0.9971762895584106,
        -0.9990105628967285,
        -0.9517822861671448
      ],
      "type": "VEC3"
    },
    {
      "bufferView": 3,
      "byteOffset": 1048512,
      "componentType": 5126,
      "count": 26742,
      "max": [
        0.9997072815895081,
        0.999975860118866,
        0.870907187461853,
        1.0
      ],
      "min": [
        -0.9999514222145081,
        -0.9998184442520142,
        -0.9297688603401184,
        -1.0
      ],
      "type": "VEC4"
    },
    {
      "bufferView": 1,
      "byteOffset": 1948704,
      "componentType": 5126,
      "count": 26742,
      "max": [
        0.6014613509178162,
        0.6423348784446716
      ],
      "min": [
        0.39917516708374023,
        0.34940674901008606
      ],
      "type": "VEC2"
    },
    {
      "bufferView": 1,
      "byteOffset": 2162640,
      "componentType": 5126,
      "count": 26742,
      "max": [
        0.6014613509178162,
        0.6423348784446716
      ],
      "min": [
        0.39917516708374023,
        0.34940674901008606
      ],
      "type": "VEC2"
    },
    {
      "bufferView": 1,
      "byteOffset": 2376576,
      "componentType": 5126,
      "count": 26742,
      "max": [
        0.6014613509178162,
        0.6423348784446716
      ],
      "min": [
        0.39917516708374023,
        0.34940674901008606
      ],
      "type": "VEC2"
    },
    {
      "bufferView": 0,
      "byteOffset": 1073748,
      "componentType": 5125,
      "count": 26742,
      "type": "SCALAR"
    }
  ],
  "asset": {
    "extras": {
      "author": "PolyCraftSutdios (https://sketchfab.com/PolyCraftSutdios)",
      "license": "CC-BY-4.0 (http://creativecommons.org/licenses/by/4.0/)",
      "source": "https://sketchfab.com/3d-models/decorative-tree-9d14f5bc63d94f49b23e94128bf797c0",
      "title": "Decorative Tree"
    },
    "generator": "Sketchfab-16.59.0",
    "version": "2.0"
  },
  "bufferViews": [
    {
      "buffer": 0,
      "byteLength": 1180716,
      "name": "floatBufferViews",
      "target": 34963
    },
    {
      "buffer": 0,
      "byteLength": 2590512,
      "byteOffset": 1180716,
      "byteStride": 8,
      "name": "floatBufferViews",
      "target": 34962
    },
    {
      "buffer": 0,
      "byteLength": 3342384,
      "byteOffset": 3771228,
      "byteStride": 12,
      "name": "floatBufferViews",
      "target": 34962
    },
    {
      "buffer": 0,
      "byteLength": 1476384,
      "byteOffset": 7113612,
      "byteStride": 16,
      "name": "floatBufferViews",
      "target": 34962
    }
  ],
  "buffers": [
    {
      "byteLength": 8589996,
      "uri": "scene.bin"
    }
  ],
  "images": [
    {
      "uri": "textures/Material.002_baseColor.jpeg"
    },
    {
      "uri": "textures/Material.001_baseColor.jpeg"
    },
    {
      "uri": "textures/Material.001_normal.png"
    }
  ],
  "materials": [
    {
      "doubleSided": true,
      "name": "Material.002",
      "pbrMetallicRoughness": {
        "baseColorTexture": {
          "index": 0
        },
        "metallicFactor": 0.0
      }
    },
    {
      "doubleSided": true,
      "name": "Material.001",
      "normalTexture": {
        "index": 2,
        "texCoord": 1
      },
      "pbrMetallicRoughness": {
        "baseColorTexture": {
          "index": 1
        },
        "metallicFactor": 0.0,
        "roughnessFactor": 0.8211145618000169
      }
    }
  ],
  "meshes": [
    {
      "name": "tree_Material.002_0",
      "primitives": [
        {
          "attributes": {
            "NORMAL": 1,
            "POSITION": 0,
            "TEXCOORD_0": 2
          },
          "indices": 3,
          "material": 0,
          "mode": 4
        }
      ]
    },
    {
      "name": "leaves_Material.001_0",
      "primitives": [
        {
          "attributes": {
            "NORMAL": 5,
            "POSITION": 4,
            "TANGENT": 6,
            "TEXCOORD_0": 7,
            "TEXCOORD_1": 8,
            "TEXCOORD_2": 9
          },
          "indices": 10,
          "material": 1,
          "mode": 4
        }
      ]
    },
    {
      "name": "leaves_Material.001_0",
      "primitives": [
        {
          "attributes": {
            "NORMAL": 12,
            "POSITION": 11,
            "TANGENT": 13,
            "TEXCOORD_0": 14,
            "TEXCOORD_1": 15,
            "TEXCOORD_2": 16
          },
          "indices": 17,
          "material": 1,
          "mode": 4
        }
      ]
    }
  ],
  "nodes": [
    {
      "children": [
        1
      ],
      "matrix": [
        1.0,
        0.0,
        0.0,
        0.0,
        0.0,
        2.220446049250313e-16,
        -1.0,
        0.0,
        0.0,
        1.0,
        2.220446049250313e-16,
        0.0,
        0.0,
        0.0,
        0.0,
        1.0
      ],
      "name": "Sketchfab_model"
    },
    {
      "children": [
        2
      ],
      "matrix": [
        0.009999999776482582,
        0.0,
        0.0,
        0.0,
        0.0,
        0.0,
        0.009999999776482582,
        0.0,
        0.0,
        -0.009999999776482582,
        0.0,
        0.0,
        0.0,
        0.0,
        0.0,
        1.0
      ],
      "name": "Decortaive Tree.fbx"
    },
    {
      "children": [
        3
      ],
      "name": "RootNode"
    },
    {
      "children": [
        4,
        5
      ],
      "matrix": [
        -99.6194686451565,
        3.67684451635375e-07,
        -8.715587579543122,
        0.0,
        -8.71558757954313,
        -4.338970738260173e-06,
        99.61946864515639,
        0.0,
        -1.1881497175014744e-08,
        99.99999999999991,
        4.354505434012168e-06,
        0.0,
        -3.799290051943911e-15,
        14.936722755432129,
        -6.2714338302612305,
        1.0
      ],
      "name": "tree"
    },
    {
      "mesh": 0,
      "name": "tree_Material.002_0"
    },
    {
      "children": [
        6,
        7
      ],
      "matrix": [
        1.0000001192092896,
        1.3877787807814454e-17,
        0.0,
        0.0,
        -1.3877787807814454e-17,
        1.0000001192092896,
        -1.323488980084844e-23,
        0.0,
        -1.8367094852541316e-40,
        1.3234888223126817e-23,
        1.0,
        0.0,
        0.0,
        0.0,
        0.0,
        1.0
      ],
      "name": "leaves"
    },
    {
      "mesh": 1,
      "name": "leaves_Material.001_0"
    },
    {
      "mesh": 2,
      "name": "leaves_Material.001_0"
    }
  ],
  "samplers": [
    {
      "magFilter": 9729,
      "minFilter": 9987,
      "wrapS": 10497,
      "wrapT": 10497
    }
  ],
  "scene": 0,
  "scenes": [
    {
      "name": "Sketchfab_Scene",
      "nodes": [
        0
      ]
    }
  ],
  "textures": [
    {
      "sampler": 0,
      "source": 0
    },
    {
      "sampler": 0,
      "source": 1
    },
    {
      "sampler": 0,
      "source": 2
    }
  ]
}
